<svg xmlns="http://www.w3.org/2000/svg" width="25" height="15" fill="#fff"><path d="M24.9 13.2c0-.1-.1-.1-.1-.2-.4-.8-1.3-1.7-2.5-2.9-.6-.5-.9-.9-1.1-1.1-.3-.3-.4-.6-.2-1 .1-.3.5-.8 1.2-1.7.4-.5.6-.8.8-1.1 1.5-2 2.2-3.3 2-3.8l-.1-.1c-.1-.1-.2-.1-.4-.2S24 1 23.7 1H19.3l-.1.1c-.1.1-.1.1-.1.2-.4 1-.9 2-1.4 2.9-.3.5-.6 1-.9 1.4-.3.4-.5.7-.7.9-.2.2-.3.3-.5.4-.1.1-.3.2-.3.1-.1 0-.2 0-.2-.1-.1.3-.2.2-.3.1-.1-.1-.1-.3-.1-.5V6v-.6-.5-1.1-.9-.7-.6c0-.1-.1-.3-.1-.4-.1-.1-.1-.2-.3-.3-.1-.1-.3-.1-.4-.2-.5-.1-1-.2-1.8-.2-1.6 0-2.7.1-3.1.3-.3 0-.4.1-.6.3-.1.2-.2.3 0 .3.5.1.9.3 1.1.6l.1.2c.1.1.1.3.2.6V5.2c0 .5-.1.8-.1 1.1 0 .3-.1.5-.2.6 0 .2-.1.3-.1.3s0 .1-.1.1-.2.1-.3.1c-.1 0-.3-.1-.4-.2-.2-.1-.4-.3-.6-.5-.2-.2-.4-.5-.6-.9-.3-.4-.5-.8-.8-1.4l-.2-.3c-.1-.3-.3-.6-.5-1.1-.2-.5-.4-.9-.6-1.4-.1-.1-.2-.3-.3-.4h-.1s-.1-.1-.2-.1C4.6 1 4.5 1 4.4 1H.8c-.3 0-.6.1-.7.3H0v.2c0 .1 0 .2.1.4.5 1.2 1.1 2.4 1.7 3.5s1.1 2.1 1.6 2.7c.5.7.9 1.3 1.4 2 .5.6.8 1 .9 1.2.1.2.3.3.3.4l.4.3c.2.2.5.5.9.7.4.3.9.6 1.3.9.5.3 1.1.5 1.7.7.7.2 1.3.2 1.9.2h1.5c.3 0 .5-.1.7-.3l.1-.1c0-.1.1-.1.1-.2v-.4c0-.4 0-.7.1-1 .1-.3.1-.5.2-.7.1-.2.2-.3.3-.4l.2-.2h.1c.2-.1.5 0 .7.2.3.2.5.5.8.8.2.3.5.6.9 1 .3.4.7.7.9.8l.3.2c.2.1.4.2.7.3.3.1.5.1.7.1l3.3-.1c.3 0 .6-.1.8-.2.2-.1.3-.2.3-.4v-.4-.3z"/></svg>
