<svg xmlns="http://www.w3.org/2000/svg" xmlns:xlink="http://www.w3.org/1999/xlink" width="428.2" height="427.3"><defs><path id="a" d="M93.2 0C41.7 0 0 41.9 0 93.6v240.1c0 51.7 41.7 93.6 93.2 93.6H335c51.5 0 93.2-41.9 93.2-93.6V93.6C428.2 41.9 386.5 0 335 0H93.2z"/></defs><clipPath id="b"><use xlink:href="#a" overflow="visible"/></clipPath><radialGradient id="c" cx="0" cy="427.323" r="1" gradientTransform="scale(431.6825 -431.6825) rotate(71.063 300.03 213.37)" gradientUnits="userSpaceOnUse"><stop offset="0" stop-color="#eed27f"/><stop offset=".246" stop-color="#d9a25f"/><stop offset=".379" stop-color="#ca6046"/><stop offset=".539" stop-color="#b45c64"/><stop offset=".7" stop-color="#9d5785"/><stop offset=".908" stop-color="#6f669e"/><stop offset=".985" stop-color="#606aa8"/><stop offset="1" stop-color="#606aa8"/></radialGradient><path clip-path="url(#b)" fill="url(#c)" d="M-131.2 382.3L45.1-131.4 559.4 45 383.1 558.8z"/><defs><path id="d" d="M0 0h428.2v427.3H0z"/></defs><clipPath id="e"><use xlink:href="#d" overflow="visible"/></clipPath><path d="M357.9 282.6c0 43.9-35.6 79.6-79.6 79.6H149.9c-43.9 0-79.6-35.6-79.6-79.6v-137c0-43.9 35.6-79.6 79.6-79.6h128.4c43.9 0 79.6 35.6 79.6 79.6v137z" clip-path="url(#e)" fill="none" stroke="#fff" stroke-width="35.065" stroke-miterlimit="10"/><path d="M284.7 213.7c-.9 39-31.6 70.6-70.6 70.6-39 0-70.6-31.6-70.6-70.6s31.6-71.7 70.6-70.6c47.5 1.4 71.4 31.7 70.6 70.6z" clip-path="url(#e)" fill="none" stroke="#fff" stroke-width="42.857" stroke-miterlimit="10"/><path d="M320.8 126.4c0 10.9-8.9 19.8-19.8 19.8s-19.8-8.9-19.8-19.8 8.9-19.8 19.8-19.8c11 0 19.8 8.8 19.8 19.8" clip-path="url(#e)" fill="#fff"/></svg>