<svg xmlns="http://www.w3.org/2000/svg" width="12" height="9" fill="#fff"><path class="st0" d="M29.3 812.3c-6.5-6.5-1.7-17.4 7.7-17.4s14.2 10.9 7.7 17.4c-1.7 1.7-5.1 3.1-7.7 3.1-2.6 0-6-1.4-7.7-3.1zM76.4 813c-5.5-5.5-4-15.1 2.9-17.7 10.6-4 19.6 8.9 11.6 16.9-3.7 3.8-11.1 4.1-14.5.8zM15.1 772.7C10.8 767.3 0 747.7 0 745c0-1.7.8-3.7 1.8-4.8 3.4-3.4 7.2-1.8 11.2 4.3l3.9 6.2 6.9-5.2c9.9-7.5 20.6-10.8 36.2-10.8s26.3 3.2 36.2 10.8l6.9 5.2 3.9-6.2c4-6.2 7.9-7.7 11.2-4.3 3.1 3.1 2.2 7.1-4.5 18.6-10 17.3-12.3 19.1-17.6 14-1.7-1.7-2.2-4-1.5-6.6 1.5-7.2-9.6-15.3-25.7-18.6-19.4-3.9-46.1 7.5-43.6 18.6.6 2.6.2 4.9-1.5 6.6-3.2 3.3-5.8 3.1-8.7-.1z" transform="matrix(.1 0 0 -.1 0 82)"/></svg>
