<svg xmlns="http://www.w3.org/2000/svg" width="60" height="60"><path fill-rule="evenodd" fill="#FFF" d="M57 47.998h-3v6c0 3.309-2.691 6-6 6H6c-3.309 0-6-2.691-6-6v-36c0-3.309 2.691-6 6-6h2.42L37.885.213a3.002 3.002 0 0 1 3.798 1.443l5.172 10.342H48c3.309 0 6 2.691 6 6v6h3a3 3 0 0 1 3 3v18a3 3 0 0 1-3 3zM37.551 6.808l-12.972 5.19h15.566l-2.594-5.19zM6 17.998v36h41.991l.002-6H39a3.013 3.013 0 0 1-2.121-.877l-9-9a3 3 0 0 1 0-4.243l9-9a2.999 2.999 0 0 1 2.121-.88h8.998l.002-6H6zm48 12H40.242l-6 6 6 6H54v-12zm-15 6a3 3 0 1 1 6.002.004A3 3 0 0 1 39 35.998z"/></svg>