<svg xmlns="http://www.w3.org/2000/svg" width="68" height="40"><path fill-rule="evenodd" fill="#FFF" d="M66 29.999h-2v8a2 2 0 0 1-2 2h-8a2 2 0 0 1-2-2v-8h-2a2 2 0 0 1-2-2v-4c0-5.514 4.486-10 10-10s10 4.486 10 10v4a2 2 0 0 1-2 2zm-2-6c0-3.309-2.691-6-6-6s-6 2.691-6 6v2h2c1.104 0 2 .897 2 2v8h4v-8a2 2 0 0 1 2-2h2v-2zm-6-12c-3.309 0-6-2.691-6-6s2.691-6 6-6 6 2.691 6 6-2.691 6-6 6zm0-8a2 2 0 1 0 2 2c0-1.102-.898-2-2-2zm-16 26h-2v8a2 2 0 0 1-2 2h-8a2 2 0 0 1-2-2v-8h-2a2 2 0 0 1-2-2v-4c0-5.514 4.486-10 10-10s10 4.486 10 10v4a2 2 0 0 1-2 2zm-2-6c0-3.309-2.691-6-6-6s-6 2.691-6 6v2h2c1.104 0 2 .897 2 2v8h4v-8a2 2 0 0 1 2-2h2v-2zm-6-12c-3.309 0-6-2.691-6-6s2.691-6 6-6 6 2.691 6 6-2.691 6-6 6zm0-8a2 2 0 1 0 2 2c0-1.102-.898-2-2-2zm-16 26h-2v8a2 2 0 0 1-2 2H6a2 2 0 0 1-2-2v-8H2a2 2 0 0 1-2-2v-4c0-5.514 4.486-10 10-10s10 4.486 10 10v4a2 2 0 0 1-2 2zm-2-6c0-3.309-2.691-6-6-6s-6 2.691-6 6v2h2c1.104 0 2 .897 2 2v8h4v-8a2 2 0 0 1 2-2h2v-2zm-6-12c-3.309 0-6-2.691-6-6s2.691-6 6-6 6 2.691 6 6-2.691 6-6 6zm0-8a2 2 0 1 0 2 2c0-1.102-.898-2-2-2z"/></svg>