<svg xmlns="http://www.w3.org/2000/svg" width="40" height="40"><path d="M40 31.2c0 4.8-3.9 8.7-8.7 8.7H8.7C3.9 40 0 36 0 31.2V8.8C0 4 3.9.1 8.7.1h22.6C36.1.1 40 4 40 8.8v22.4z" fill="#647ca1"/><path d="M20.2 27h1.4s.4 0 .7-.2c.2-.2.2-.6.2-.6s0-1.9.9-2.2c.9-.3 2 1.9 3.2 2.7.9.6 1.6.5 1.6.5h3.2s1.7-.1.9-1.4c-.1-.1-.5-1-2.4-2.8-2-1.9-1.7-1.6.7-4.9 1.5-2 2.1-3.2 1.9-3.7-.2-.5-1.3-.4-1.3-.4h-3.6s-.3 0-.5.1-.3.4-.3.4-.6 1.5-1.3 2.9c-1.6 2.8-2.3 2.9-2.5 2.7-.6-.4-.5-1.6-.5-2.5 0-2.7.4-3.8-.8-4.1-.4-.1-.7-.2-1.7-.2-1.3 0-2.4 0-3 .3-.4.2-.7.7-.5.7.2 0 .8.1 1.1.5.4.5.4 1.7.4 1.7s.2 3.2-.5 3.5c-.5.3-1.2-.3-2.6-2.8-.7-1.3-1.3-2.7-1.3-2.7s-.1-.3-.3-.4c-.3-.1-.6-.1-.6-.1H9.3s-.5 0-.7.2c-.2.2 0 .6 0 .6s2.7 6.3 5.7 9.5c2.8 3 5.9 2.7 5.9 2.7z" fill="#fff"/></svg>