<svg xmlns="http://www.w3.org/2000/svg" width="10" height="16" fill="#fff"><path d="M5 2.4c.9 0 1.7.8 1.7 1.7 0 .9-.8 1.7-1.7 1.7-.9 0-1.7-.8-1.7-1.7 0-.9.8-1.7 1.7-1.7zm0 5.9c2.3 0 4.1-1.9 4.1-4.1C9.1 1.9 7.3 0 5 0S.9 1.9.9 4.1C.9 6.4 2.7 8.3 5 8.3zm1.7 3.3c.8-.2 1.7-.5 2.4-1 .5-.3.7-1.1.3-1.6-.3-.6-1.1-.8-1.6-.4-1.7 1.1-3.9 1.1-5.6 0C1.7 8.2.9 8.4.6 9c-.4.6-.2 1.3.4 1.7.7.5 1.6.8 2.4 1L1 13.9c-.5.5-.5 1.2 0 1.7.3.3.6.4.9.4.3 0 .6-.1.9-.4L5 13.4l2.3 2.3c.5.5 1.2.5 1.7 0s.5-1.2 0-1.7l-2.3-2.4z"/></svg>
