<svg xmlns="http://www.w3.org/2000/svg" width="736.6" height="45" viewBox="354 -10 736.6 45" fill="#e75125"><path d="M365 14.2h-3.9l-1.5 8h-2.9l1.5-8h-3l.6-2.9h2.9l1.3-6.7h-2.9l.6-2.9h2.9l1.4-7.5h2.9l-1.4 7.5h3.9l1.5-7.5h3l-1.4 7.5h2.9l-.7 2.9h-2.8l-1.3 6.7h2.9l-.7 2.9h-2.7l-1.5 8h-3.1l1.5-8zm-3.4-2.9h4l1.3-6.7h-4l-1.3 6.7zM390.2 14.3h-8.3V25h-3.5V1h3.5v10.2h8.3V1h3.5v24h-3.5V14.3zM399 2.4c.9-.6 2.1-1 3.4-1.3s2.7-.5 4.2-.5c1.3 0 2.4.2 3.2.6.8.4 1.5.9 1.9 1.6.5.7.8 1.5.9 2.4.1.9.2 1.8.2 2.8 0 1.9 0 3.8-.1 5.6-.1 1.8-.1 3.6-.1 5.2 0 1.2 0 2.3.1 3.4.1 1 .2 2 .5 3h-2.7l-.8-2.8h-.2c-.5.8-1.2 1.6-2.1 2.2s-2.2.9-3.7.9c-1.7 0-3.1-.6-4.2-1.8s-1.6-2.9-1.6-5c0-1.4.2-2.5.7-3.5s1.1-1.7 2-2.3c.8-.6 1.8-1 3-1.2 1.2-.2 2.5-.4 3.9-.4h2c.1-1 .1-1.9.1-2.6 0-1.8-.3-3.1-.8-3.8-.5-.7-1.5-1.1-2.9-1.1-.9 0-1.9.1-2.9.4-1 .3-1.9.6-2.6 1L399 2.4zm10.3 11.7c-.3 0-.6-.1-.9-.1h-.9c-.8 0-1.5.1-2.2.2s-1.4.4-1.9.7c-.6.3-1 .8-1.4 1.3-.3.5-.5 1.2-.5 2.1 0 1.3.3 2.3.9 3 .6.7 1.4 1.1 2.4 1.1 1.3 0 2.4-.3 3.1-1 .7-.6 1.2-1.3 1.5-2.1v-5.2zM417.4 13c0-4.3.7-7.5 2.2-9.5 1.5-2 3.6-3 6.4-3 2.9 0 5.1 1 6.5 3.1 1.4 2.1 2.1 5.2 2.1 9.5 0 4.4-.8 7.5-2.3 9.6-1.5 2-3.6 3-6.3 3-2.9 0-5.1-1-6.5-3.1-1.4-2.2-2.1-5.4-2.1-9.6zm3.6 0c0 1.4.1 2.7.3 3.8.2 1.2.5 2.1.9 3 .4.8.9 1.5 1.6 1.9.6.5 1.4.7 2.3.7 1.7 0 2.9-.7 3.7-2.2.8-1.5 1.2-3.9 1.2-7.2 0-1.4-.1-2.6-.3-3.8-.2-1.2-.5-2.2-.9-3-.4-.8-.9-1.5-1.6-1.9-.6-.5-1.4-.7-2.3-.7-1.6 0-2.9.8-3.7 2.3-.8 1.4-1.2 3.8-1.2 7.1zM456.7 31.1h-2.4l-.6-6.1h-14.2l-.6 6.1h-2.4v-9.2h2.3c.2-.4.5-1 .8-1.9.3-.9.7-2.3 1-3.9.3-1.7.6-3.8.8-6.2.2-2.5.4-5.4.4-8.8h12V22h2.8v9.1zm-6.3-9.2V4.1H445c-.1 1.4-.2 2.9-.3 4.5-.1 1.6-.3 3.3-.5 4.9-.2 1.6-.5 3.2-.8 4.6-.3 1.5-.7 2.7-1.1 3.7h8.1zM472 14.3h-8.3V25h-3.5V1h3.5v10.2h8.3V1h3.5v24H472V14.3zM480 13c0-4.3.7-7.5 2.2-9.5 1.5-2 3.6-3 6.4-3 2.9 0 5.1 1 6.5 3.1 1.4 2.1 2.1 5.2 2.1 9.5 0 4.4-.8 7.5-2.3 9.6-1.5 2-3.6 3-6.3 3-2.9 0-5.1-1-6.5-3.1-1.4-2.2-2.1-5.4-2.1-9.6zm3.6 0c0 1.4.1 2.7.3 3.8.2 1.2.5 2.1.9 3 .4.8.9 1.5 1.6 1.9.6.5 1.4.7 2.3.7 1.7 0 2.9-.7 3.7-2.2.8-1.5 1.2-3.9 1.2-7.2 0-1.4-.1-2.6-.3-3.8-.2-1.2-.5-2.2-.9-3-.4-.8-.9-1.5-1.6-1.9-.6-.5-1.4-.7-2.3-.7-1.6 0-2.9.8-3.7 2.3-.7 1.4-1.2 3.8-1.2 7.1zM517.8 10.7l.3-4.6h-.2l-1.4 4.1-4.5 9.2h-1.2l-4.7-9.2-1.3-4.1h-.2l.4 4.5V25h-3.1V1h3.5l5.2 10.4 1.1 3.1h.1l1.2-3.2L517.7 1h3.6v24h-3.5V10.7zM544.4 31.1H542l-.6-6.1h-14.2l-.6 6.1h-2.4v-9.2h2.3c.2-.4.5-1 .8-1.9.3-.9.7-2.3 1-3.9.3-1.7.6-3.8.8-6.2.2-2.5.4-5.4.4-8.8h12V22h2.8v9.1zm-6.3-9.2V4.1h-5.4c-.1 1.4-.2 2.9-.3 4.5-.1 1.6-.3 3.3-.5 4.9-.2 1.6-.5 3.2-.8 4.6-.3 1.5-.7 2.7-1.1 3.7h8.1zM551.4 10.2l1.8-.3c.6 0 1.1-.1 1.6-.1 1.3 0 2.4.2 3.3.6.9.4 1.6.9 2.1 1.5s.9 1.4 1.1 2.3c.2.9.3 1.8.3 2.8 0 2.9-.6 5-1.9 6.3s-3.4 2-6.5 2c-1.9 0-3.7-.1-5.4-.3V1h3.5v9.2zm0 11.7c1 .2 1.8.3 2.6.3 1.5 0 2.6-.4 3.2-1.2.6-.8.9-2 .9-3.5 0-1.4-.3-2.6-.9-3.4-.6-.8-1.6-1.2-3.1-1.2-.4 0-.9 0-1.3.1-.5 0-.9.1-1.4.3v8.6zM564.7 1h3.5v24h-3.5V1zM578.7 12.7L572.3 1h4.1l3.6 6.9 1 2.7 1-2.7 3.6-6.9h3.8L583 12.5l6.8 12.5h-3.9l-4-7.5-1.1-2.9-1.1 2.9-4 7.5h-3.8l6.8-12.3zM593.3 2.4c.9-.6 2.1-1 3.4-1.3s2.7-.5 4.2-.5c1.3 0 2.4.2 3.2.6.8.4 1.5.9 1.9 1.6.5.7.8 1.5.9 2.4.1.9.2 1.8.2 2.8 0 1.9 0 3.8-.1 5.6-.1 1.8-.1 3.6-.1 5.2 0 1.2 0 2.3.1 3.4.1 1 .2 2 .5 3h-2.7l-.8-2.8h-.2c-.5.8-1.2 1.6-2.1 2.2s-2.2.9-3.7.9c-1.7 0-3.1-.6-4.2-1.8s-1.6-2.9-1.6-5c0-1.4.2-2.5.7-3.5s1.1-1.7 2-2.3c.8-.6 1.8-1 3-1.2 1.2-.2 2.5-.4 3.9-.4h2c.1-1 .1-1.9.1-2.6 0-1.8-.3-3.1-.8-3.8-.5-.7-1.5-1.1-2.9-1.1-.9 0-1.9.1-2.9.4-1 .3-1.9.6-2.6 1l-1.4-2.8zm10.3 11.7c-.3 0-.6-.1-.9-.1h-.9c-.8 0-1.5.1-2.2.2s-1.4.4-1.9.7c-.6.3-1 .8-1.4 1.3-.3.5-.5 1.2-.5 2.1 0 1.3.3 2.3.9 3 .6.7 1.4 1.1 2.4 1.1 1.3 0 2.4-.3 3.1-1 .7-.6 1.2-1.3 1.5-2.1v-5.2zM624.5 14.3h-8.3V25h-3.5V1h3.5v10.2h8.3V1h3.5v24h-3.5V14.3zM645.5 11.2l.3-3.6h-.2l-1.7 4-8 13.4h-2.3V1h3.5v14.3l-.3 3.5h.2l1.6-3.9L646.7 1h2.3v24h-3.5V11.2zM666.6 11.2l.3-3.6h-.2l-1.7 4-8.1 13.4h-2.3V1h3.5v14.3l-.3 3.5h.2l1.6-3.9L667.8 1h2.3v24h-3.5V11.2zM694.1 14.2h-3.9l-1.5 8h-2.9l1.5-8h-3l.6-2.9h2.9l1.3-6.7h-2.9l.6-2.9h2.9l1.4-7.5h2.9l-1.4 7.5h3.9l1.5-7.5h3l-1.4 7.5h2.9l-.7 2.9H699l-1.3 6.7h2.9l-.7 2.9h-2.7l-1.5 8h-3.1l1.5-8zm-3.4-2.9h4l1.3-6.7h-4l-1.3 6.7zM717.3 15.1l-2.9.6-4.8 9.4h-4.1l4.5-8.3 1.5-1.7c-1.3-.3-2.4-.9-3.3-2-.9-1.1-1.4-2.6-1.4-4.4 0-2.9.8-5 2.3-6.2 1.6-1.3 3.7-1.9 6.4-1.9 1 0 1.9.1 2.8.2s1.7.3 2.5.5V25h-3.5v-9.9zm0-2.2V4c-.3-.2-.7-.3-1.1-.3-.4-.1-.8-.1-1.1-.1-1.5 0-2.7.4-3.5 1.2-.8.8-1.2 2-1.2 3.6 0 1.5.5 2.6 1.4 3.4.9.8 2.2 1.2 3.7 1.1h1.8zM728.2 5.1C729 3.6 730 2.6 731 2s2.3-.9 3.8-.9c2.4 0 4.2.9 5.5 2.8 1.3 1.9 1.9 4.7 1.9 8.6 0 4.4-.8 7.7-2.3 9.9-1.5 2.1-3.6 3.2-6.3 3.2-1.4 0-2.7-.3-3.8-.8-1.1-.6-2-1.4-2.7-2.6-.7-1.2-1.3-2.8-1.6-4.7-.4-1.9-.6-4.2-.6-7s.1-5.1.4-7.1c.2-2 .6-3.6 1-4.9.4-1.3 1-2.4 1.6-3.2.6-.8 1.3-1.4 2.1-1.9s1.6-.8 2.5-1 1.9-.4 2.9-.5c1.3-.2 2.4-.4 3.2-.6.8-.2 1.4-.6 1.9-1.2l.2 3.3c-.3.3-.5.5-.9.7-.3.2-.7.3-1.2.5-.4.1-1 .2-1.6.3-.6.1-1.3.2-2.1.2-1.1.1-2 .3-2.9.6-.8.3-1.5.8-2.1 1.6s-1.1 1.7-1.4 3c-.1 1.3-.3 2.9-.3 4.8zm.4 7.9c0 1.3.1 2.5.3 3.7.2 1.1.5 2.1.9 3 .4.8.9 1.5 1.6 2 .6.5 1.4.7 2.2.7 1.7 0 2.9-.8 3.7-2.4.8-1.6 1.2-4 1.2-7.3 0-2.6-.4-4.7-1.1-6.3-.7-1.6-1.9-2.3-3.5-2.3-1.9 0-3.3.8-4.2 2.3-.6 1.7-1.1 3.8-1.1 6.6zM761.2 23.4c-.8.7-1.7 1.2-2.9 1.6-1.2.4-2.4.6-3.7.6-1.5 0-2.8-.3-3.9-.9-1.1-.6-2-1.4-2.7-2.5-.7-1.1-1.2-2.4-1.6-4-.3-1.5-.5-3.3-.5-5.2 0-4.1.8-7.2 2.3-9.4 1.5-2.1 3.6-3.2 6.4-3.2.9 0 1.8.1 2.7.3.9.2 1.7.7 2.4 1.3.7.7 1.3 1.6 1.7 2.8.4 1.2.6 2.8.6 4.8 0 .5 0 1.1-.1 1.8s-.1 1.3-.2 1.9h-12.2c0 1.4.1 2.6.3 3.7.2 1.1.6 2.1 1.1 2.9.5.8 1.1 1.4 1.8 1.8.8.4 1.7.6 2.8.6.9 0 1.7-.2 2.6-.5.8-.3 1.5-.7 1.9-1.2l1.2 2.8zm-2.7-12.9c.1-2.4-.3-4.2-1-5.3-.7-1.1-1.7-1.7-3-1.7-1.5 0-2.6.6-3.5 1.7-.9 1.1-1.4 2.9-1.5 5.3h9zM778.1 4.1h-8V25h-3.5V1H778v3.1zM786.8 16.5l1 4.7h.2l.7-4.7L792.4 1h3.5l-5.7 21.6c-.4 1.7-.9 3.3-1.3 4.8s-.9 2.8-1.5 3.9c-.5 1.1-1.1 2-1.8 2.6-.7.6-1.4.9-2.3.9-.9 0-1.7-.1-2.4-.4l.6-3.3c.4.2.9.2 1.3.1s.9-.4 1.3-.8.8-1.1 1.1-2 .6-2 .9-3.4l-7.8-24h3.9l4.6 15.5zM810.7 14.3h-8.3V25h-3.5V1h3.5v10.2h8.3V1h3.5v24h-3.5V14.3zM819.5 2.4c.9-.6 2.1-1 3.4-1.3s2.7-.5 4.2-.5c1.3 0 2.4.2 3.2.6.8.4 1.5.9 1.9 1.6.5.7.8 1.5.9 2.4.1.9.2 1.8.2 2.8 0 1.9 0 3.8-.1 5.6-.1 1.8-.1 3.6-.1 5.2 0 1.2 0 2.3.1 3.4.1 1 .2 2 .5 3H831l-.8-2.8h-.2c-.5.8-1.2 1.6-2.1 2.2s-2.2.9-3.7.9c-1.7 0-3.1-.6-4.2-1.8s-1.6-2.9-1.6-5c0-1.4.2-2.5.7-3.5s1.1-1.7 2-2.3c.8-.6 1.8-1 3-1.2 1.2-.2 2.5-.4 3.9-.4h2c.1-1 .1-1.9.1-2.6 0-1.8-.3-3.1-.8-3.8-.5-.7-1.5-1.1-2.9-1.1-.9 0-1.9.1-2.9.4-1 .3-1.9.6-2.6 1l-1.4-2.8zm10.3 11.7c-.3 0-.6-.1-.9-.1h-.9c-.8 0-1.5.1-2.2.2s-1.4.4-1.9.7c-.6.3-1 .8-1.4 1.3-.3.5-.5 1.2-.5 2.1 0 1.3.3 2.3.9 3 .6.7 1.4 1.1 2.4 1.1 1.3 0 2.4-.3 3.1-1 .7-.6 1.2-1.3 1.5-2.1v-5.2zM837.9 13c0-4.3.7-7.5 2.2-9.5 1.5-2 3.6-3 6.4-3 2.9 0 5.1 1 6.5 3.1 1.4 2.1 2.1 5.2 2.1 9.5 0 4.4-.8 7.5-2.3 9.6-1.5 2-3.6 3-6.3 3-2.9 0-5.1-1-6.5-3.1-1.4-2.2-2.1-5.4-2.1-9.6zm3.6 0c0 1.4.1 2.7.3 3.8.2 1.2.5 2.1.9 3 .4.8.9 1.5 1.6 1.9.6.5 1.4.7 2.3.7 1.7 0 2.9-.7 3.7-2.2.8-1.5 1.2-3.9 1.2-7.2 0-1.4-.1-2.6-.3-3.8-.2-1.2-.5-2.2-.9-3-.4-.8-.9-1.5-1.6-1.9-.6-.5-1.4-.7-2.3-.7-1.6 0-2.9.8-3.7 2.3-.8 1.4-1.2 3.8-1.2 7.1zM877.1 31.1h-2.4l-.6-6.1H860l-.6 6.1H857v-9.2h2.3c.2-.4.5-1 .8-1.9.3-.9.7-2.3 1-3.9.3-1.7.6-3.8.8-6.2.2-2.5.4-5.4.4-8.8h12V22h2.8v9.1zm-6.2-9.2V4.1h-5.4c-.1 1.4-.2 2.9-.3 4.5-.1 1.6-.3 3.3-.5 4.9-.2 1.6-.5 3.2-.8 4.6-.3 1.5-.7 2.7-1.1 3.7h8.1zM892.5 14.3h-8.3V25h-3.5V1h3.5v10.2h8.3V1h3.5v24h-3.5V14.3zM900.5 13c0-4.3.7-7.5 2.2-9.5 1.5-2 3.6-3 6.4-3 2.9 0 5.1 1 6.5 3.1 1.4 2.1 2.1 5.2 2.1 9.5 0 4.4-.8 7.5-2.3 9.6-1.5 2-3.6 3-6.3 3-2.9 0-5.1-1-6.5-3.1-1.4-2.2-2.1-5.4-2.1-9.6zm3.6 0c0 1.4.1 2.7.3 3.8.2 1.2.5 2.1.9 3 .4.8.9 1.5 1.6 1.9.6.5 1.4.7 2.3.7 1.7 0 2.9-.7 3.7-2.2.8-1.5 1.2-3.9 1.2-7.2 0-1.4-.1-2.6-.3-3.8-.2-1.2-.5-2.2-.9-3-.4-.8-.9-1.5-1.6-1.9-.6-.5-1.4-.7-2.3-.7-1.6 0-2.9.8-3.7 2.3-.8 1.4-1.2 3.8-1.2 7.1zM938.2 10.7l.3-4.6h-.2l-1.4 4.1-4.5 9.2h-1.2l-4.7-9.2-1.3-4.1h-.2l.4 4.5V25h-3.1V1h3.5l5.2 10.4 1.1 3.1h.1l1.2-3.2L938.2 1h3.6v24h-3.5V10.7zM964.8 31.1h-2.4l-.6-6.1h-14.2l-.6 6.1h-2.4v-9.2h2.3c.2-.4.5-1 .8-1.9.3-.9.7-2.3 1-3.9.3-1.7.6-3.8.8-6.2.2-2.5.4-5.4.4-8.8h12V22h2.8v9.1zm-6.3-9.2V4.1h-5.4c-.1 1.4-.2 2.9-.3 4.5-.1 1.6-.3 3.3-.5 4.9-.2 1.6-.5 3.2-.8 4.6-.3 1.5-.7 2.7-1.1 3.7h8.1zM971.9 10.2l1.8-.3c.6 0 1.1-.1 1.6-.1 1.3 0 2.4.2 3.3.6.9.4 1.6.9 2.1 1.5s.9 1.4 1.1 2.3c.2.9.3 1.8.3 2.8 0 2.9-.6 5-1.9 6.3s-3.4 2-6.5 2c-1.9 0-3.7-.1-5.4-.3V1h3.5v9.2zm0 11.7c1 .2 1.8.3 2.6.3 1.5 0 2.6-.4 3.2-1.2.6-.8.9-2 .9-3.5 0-1.4-.3-2.6-.9-3.4-.6-.8-1.6-1.2-3.1-1.2-.4 0-.9 0-1.3.1-.5 0-.9.1-1.4.3v8.6zM985.1 1h3.5v24h-3.5V1zM999.2 12.7L992.8 1h4.1l3.6 6.9 1 2.7 1-2.7 3.6-6.9h3.8l-6.4 11.5 6.8 12.5h-3.9l-4-7.5-1.1-2.9-1.1 2.9-4 7.5h-3.8l6.8-12.3zM1013.8 2.4c.9-.6 2.1-1 3.4-1.3s2.7-.5 4.2-.5c1.3 0 2.4.2 3.2.6.8.4 1.5.9 1.9 1.6.5.7.8 1.5.9 2.4.1.9.2 1.8.2 2.8 0 1.9 0 3.8-.1 5.6-.1 1.8-.1 3.6-.1 5.2 0 1.2 0 2.3.1 3.4.1 1 .2 2 .5 3h-2.7l-.8-2.8h-.2c-.5.8-1.2 1.6-2.1 2.2s-2.2.9-3.7.9c-1.7 0-3.1-.6-4.2-1.8s-1.6-2.9-1.6-5c0-1.4.2-2.5.7-3.5s1.1-1.7 2-2.3c.8-.6 1.8-1 3-1.2 1.2-.2 2.5-.4 3.9-.4h2c.1-1 .1-1.9.1-2.6 0-1.8-.3-3.1-.8-3.8-.5-.7-1.5-1.1-2.9-1.1-.9 0-1.9.1-2.9.4-1 .3-1.9.6-2.6 1l-1.4-2.8zm10.3 11.7c-.3 0-.6-.1-.9-.1h-.9c-.8 0-1.5.1-2.2.2s-1.4.4-1.9.7c-.6.3-1 .8-1.4 1.3-.3.5-.5 1.2-.5 2.1 0 1.3.3 2.3.9 3 .6.7 1.4 1.1 2.4 1.1 1.3 0 2.4-.3 3.1-1 .7-.6 1.2-1.3 1.5-2.1v-5.2zM1045 14.3h-8.3V25h-3.5V1h3.5v10.2h8.3V1h3.5v24h-3.5V14.3zM1066 11.2l.3-3.6h-.2l-1.7 4-8.1 13.4h-2.3V1h3.5v14.3l-.3 3.5h.2l1.6-3.9 8.2-13.8h2.3v24h-3.5V11.2zM1087.1 11.2l.3-3.6h-.2l-1.7 4-8.1 13.4h-2.3V1h3.5v14.3l-.3 3.5h.2l1.6-3.9 8.2-13.8h2.3v24h-3.5V11.2z"/></svg>
