<svg xmlns="http://www.w3.org/2000/svg" width="72" height="72"><path fill-rule="evenodd" fill="#FFF" d="M66 47.998H45v-6h20.991L66 5.999h-9v17.999a3.005 3.005 0 0 1-1.852 2.774 3 3 0 0 1-3.269-.651L45 19.242l-6.879 6.879a3.008 3.008 0 0 1-3.27.651A3.006 3.006 0 0 1 33 23.998V5.999h-9v27h-6v-27a6.007 6.007 0 0 1 6-6.001h42c3.309 0 6 2.692 6 6.001v35.999c0 3.309-2.691 6-6 6zM51 5.999H39v10.757l3.879-3.878A2.985 2.985 0 0 1 45 11.999c.768 0 1.535.292 2.121.879L51 16.756V5.999zM35.683 40.657l3 6a3 3 0 0 1-.562 3.463l-.879.879H60a2.999 2.999 0 0 1 2.399 4.801l-9 12A2.995 2.995 0 0 1 51 68.999H18a3 3 0 0 1-3 3H3a3 3 0 0 1-3-3V44.998a3 3 0 0 1 3-3h12c1.27 0 2.342.796 2.78 1.912l14.271-4.756a2.994 2.994 0 0 1 3.632 1.503zM12 47.998H6v18.001h6V47.998zm6 2.163v12.838h31.5l4.5-6.001H27v-3h.028c.001-.778.277-1.548.851-2.119l4.471-4.472-.869-1.74L18 50.161z"/></svg>