<svg xmlns="http://www.w3.org/2000/svg" width="736" height="45"><path d="M9.8 24.2H5.9l-1.5 8H1.5l1.5-8H0l.6-2.9h2.9l1.3-6.7H1.9l.6-2.9h2.9l1.4-7.5h2.9l-1.4 7.5h3.9l1.5-7.5h3l-1.4 7.5h2.9l-.7 2.9h-2.8l-1.3 6.7h2.9l-.7 2.9h-2.7l-1.5 8H8.3l1.5-8zm-3.4-2.9h4l1.3-6.7h-4l-1.3 6.7zm28.6 3h-8.3V35h-3.5V11h3.5v10.2H35V11h3.5v24H35V24.3zm8.8-11.9c.9-.6 2.1-1 3.4-1.3 1.3-.3 2.7-.5 4.2-.5 1.3 0 2.4.2 3.2.6.8.4 1.5.9 1.9 1.6.5.7.8 1.5.9 2.4.1.9.2 1.8.2 2.8 0 1.9 0 3.8-.1 5.6s-.1 3.6-.1 5.2c0 1.2 0 2.3.1 3.4.1 1 .2 2 .5 3h-2.7l-.8-2.8h-.2c-.5.8-1.2 1.6-2.1 2.2-.9.6-2.2.9-3.7.9-1.7 0-3.1-.6-4.2-1.8s-1.6-2.9-1.6-5c0-1.4.2-2.5.7-3.5s1.1-1.7 2-2.3c.8-.6 1.8-1 3-1.2s2.5-.4 3.9-.4h2c.1-1 .1-1.9.1-2.6 0-1.8-.3-3.1-.8-3.8s-1.5-1.1-2.9-1.1c-.9 0-1.9.1-2.9.4s-1.9.6-2.6 1l-1.4-2.8zm10.3 11.7c-.3 0-.6-.1-.9-.1h-.9c-.8 0-1.5.1-2.2.2-.7.1-1.4.4-1.9.7-.6.3-1 .8-1.4 1.3-.3.5-.5 1.2-.5 2.1 0 1.3.3 2.3.9 3s1.4 1.1 2.4 1.1c1.3 0 2.4-.3 3.1-1 .7-.6 1.2-1.3 1.5-2.1v-5.2h-.1zm8.1-1.1c0-4.3.7-7.5 2.2-9.5s3.6-3 6.4-3c2.9 0 5.1 1 6.5 3.1s2.1 5.2 2.1 9.5c0 4.4-.8 7.5-2.3 9.6-1.5 2-3.6 3-6.3 3-2.9 0-5.1-1-6.5-3.1-1.4-2.2-2.1-5.4-2.1-9.6zm3.6 0c0 1.4.1 2.7.3 3.8.2 1.2.5 2.1.9 3 .4.8.9 1.5 1.6 1.9.6.5 1.4.7 2.3.7 1.7 0 2.9-.7 3.7-2.2.8-1.5 1.2-3.9 1.2-7.2 0-1.4-.1-2.6-.3-3.8-.2-1.2-.5-2.2-.9-3-.4-.8-.9-1.5-1.6-1.9-.6-.5-1.4-.7-2.3-.7-1.6 0-2.9.8-3.7 2.3-.8 1.4-1.2 3.8-1.2 7.1zm35.7 18.1h-2.4l-.6-6.1H84.3l-.6 6.1h-2.4v-9.2h2.3c.2-.4.5-1 .8-1.9s.7-2.3 1-3.9c.3-1.7.6-3.8.8-6.2.2-2.5.4-5.4.4-8.8h12V32h2.8v9.1h.1zm-6.3-9.2V14.1h-5.4c-.1 1.4-.2 2.9-.3 4.5-.1 1.6-.3 3.3-.5 4.9-.2 1.6-.5 3.2-.8 4.6-.3 1.5-.7 2.7-1.1 3.7h8.1v.1zm21.6-7.6h-8.3V35H105V11h3.5v10.2h8.3V11h3.5v24h-3.5V24.3zm8-1.3c0-4.3.7-7.5 2.2-9.5s3.6-3 6.4-3c2.9 0 5.1 1 6.5 3.1s2.1 5.2 2.1 9.5c0 4.4-.8 7.5-2.3 9.6-1.5 2-3.6 3-6.3 3-2.9 0-5.1-1-6.5-3.1-1.4-2.2-2.1-5.4-2.1-9.6zm3.6 0c0 1.4.1 2.7.3 3.8.2 1.2.5 2.1.9 3 .4.8.9 1.5 1.6 1.9.6.5 1.4.7 2.3.7 1.7 0 2.9-.7 3.7-2.2.8-1.5 1.2-3.9 1.2-7.2 0-1.4-.1-2.6-.3-3.8-.2-1.2-.5-2.2-.9-3-.4-.8-.9-1.5-1.6-1.9-.6-.5-1.4-.7-2.3-.7-1.6 0-2.9.8-3.7 2.3-.7 1.4-1.2 3.8-1.2 7.1zm34.2-2.3l.3-4.6h-.2l-1.4 4.1-4.5 9.2h-1.2l-4.7-9.2-1.3-4.1h-.2l.4 4.5V35h-3.1V11h3.5l5.2 10.4 1.1 3.1h.1l1.2-3.2 4.7-10.3h3.6v24h-3.5V20.7zm26.6 20.4h-2.4l-.6-6.1H172l-.6 6.1H169v-9.2h2.3c.2-.4.5-1 .8-1.9s.7-2.3 1-3.9c.3-1.7.6-3.8.8-6.2.2-2.5.4-5.4.4-8.8h12V32h2.8v9.1h.1zm-6.3-9.2V14.1h-5.4c-.1 1.4-.2 2.9-.3 4.5s-.3 3.3-.5 4.9c-.2 1.6-.5 3.2-.8 4.6-.3 1.5-.7 2.7-1.1 3.7h8.1v.1zm13.3-11.7l1.8-.3c.6 0 1.1-.1 1.6-.1 1.3 0 2.4.2 3.3.6.9.4 1.6.9 2.1 1.5s.9 1.4 1.1 2.3c.2.9.3 1.8.3 2.8 0 2.9-.6 5-1.9 6.3s-3.4 2-6.5 2c-1.9 0-3.7-.1-5.4-.3V11h3.5v9.2h.1zm0 11.7c1 .2 1.8.3 2.6.3 1.5 0 2.6-.4 3.2-1.2.6-.8.9-2 .9-3.5 0-1.4-.3-2.6-.9-3.4-.6-.8-1.6-1.2-3.1-1.2-.4 0-.9 0-1.3.1-.5 0-.9.1-1.4.3v8.6zM209.5 11h3.5v24h-3.5V11zm14 11.7L217.1 11h4.1l3.6 6.9 1 2.7 1-2.7 3.6-6.9h3.8l-6.4 11.5 6.8 12.5h-3.9l-4-7.5-1.1-2.9-1.1 2.9-4 7.5h-3.8l6.8-12.3zm14.6-10.3c.9-.6 2.1-1 3.4-1.3 1.3-.3 2.7-.5 4.2-.5 1.3 0 2.4.2 3.2.6.8.4 1.5.9 1.9 1.6.5.7.8 1.5.9 2.4.1.9.2 1.8.2 2.8 0 1.9 0 3.8-.1 5.6s-.1 3.6-.1 5.2c0 1.2 0 2.3.1 3.4.1 1 .2 2 .5 3h-2.7l-.8-2.8h-.2c-.5.8-1.2 1.6-2.1 2.2-.9.6-2.2.9-3.7.9-1.7 0-3.1-.6-4.2-1.8s-1.6-2.9-1.6-5c0-1.4.2-2.5.7-3.5s1.1-1.7 2-2.3c.8-.6 1.8-1 3-1.2s2.5-.4 3.9-.4h2c.1-1 .1-1.9.1-2.6 0-1.8-.3-3.1-.8-3.8s-1.5-1.1-2.9-1.1c-.9 0-1.9.1-2.9.4s-1.9.6-2.6 1l-1.4-2.8zm10.3 11.7c-.3 0-.6-.1-.9-.1h-.9c-.8 0-1.5.1-2.2.2-.7.1-1.4.4-1.9.7-.6.3-1 .8-1.4 1.3-.3.5-.5 1.2-.5 2.1 0 1.3.3 2.3.9 3 .6.7 1.4 1.1 2.4 1.1 1.3 0 2.4-.3 3.1-1 .7-.6 1.2-1.3 1.5-2.1l-.1-5.2zm20.9.2H261V35h-3.5V11h3.5v10.2h8.3V11h3.5v24h-3.5V24.3zm21-3.1l.3-3.6h-.2l-1.7 4-8 13.4h-2.3V11h3.5v14.3l-.3 3.5h.2l1.6-3.9 8.1-13.9h2.3v24h-3.5V21.2zm21.1 0l.3-3.6h-.2l-1.7 4-8.1 13.4h-2.3V11h3.5v14.3l-.3 3.5h.2l1.6-3.9 8.2-13.9h2.3v24h-3.5V21.2zm27.5 3H335l-1.5 8h-2.9l1.5-8h-3l.6-2.9h2.9l1.3-6.7H331l.6-2.9h2.9l1.4-7.5h2.9l-1.4 7.5h3.9l1.5-7.5h3l-1.4 7.5h2.9l-.7 2.9h-2.8l-1.3 6.7h2.9l-.7 2.9H342l-1.5 8h-3.1l1.5-8zm-3.4-2.9h4l1.3-6.7h-4l-1.3 6.7zm26.6 3.8l-2.9.6-4.8 9.4h-4.1l4.5-8.3 1.5-1.7c-1.3-.3-2.4-.9-3.3-2-.9-1.1-1.4-2.6-1.4-4.4 0-2.9.8-5 2.3-6.2 1.6-1.3 3.7-1.9 6.4-1.9 1 0 1.9.1 2.8.2.9.1 1.7.3 2.5.5V35h-3.5v-9.9zm0-2.2V14c-.3-.2-.7-.3-1.1-.3-.4-.1-.8-.1-1.1-.1-1.5 0-2.7.4-3.5 1.2s-1.2 2-1.2 3.6c0 1.5.5 2.6 1.4 3.4s2.2 1.2 3.7 1.1h1.8zm10.9-7.8c.8-1.5 1.8-2.5 2.8-3.1s2.3-.9 3.8-.9c2.4 0 4.2.9 5.5 2.8s1.9 4.7 1.9 8.6c0 4.4-.8 7.7-2.3 9.9-1.5 2.1-3.6 3.2-6.3 3.2-1.4 0-2.7-.3-3.8-.8-1.1-.6-2-1.4-2.7-2.6s-1.3-2.8-1.6-4.7c-.4-1.9-.6-4.2-.6-7s.1-5.1.4-7.1c.2-2 .6-3.6 1-4.9s1-2.4 1.6-3.2 1.3-1.4 2.1-1.9 1.6-.8 2.5-1 1.9-.4 2.9-.5c1.3-.2 2.4-.4 3.2-.6.8-.2 1.4-.6 1.9-1.2l.2 3.3c-.3.3-.5.5-.9.7-.3.2-.7.3-1.2.5-.4.1-1 .2-1.6.3-.6.1-1.3.2-2.1.2-1.1.1-2 .3-2.9.6-.8.3-1.5.8-2.1 1.6s-1.1 1.7-1.4 3c-.1 1.3-.3 2.9-.3 4.8zm.4 7.9c0 1.3.1 2.5.3 3.7.2 1.1.5 2.1.9 3 .4.8.9 1.5 1.6 2 .6.5 1.4.7 2.2.7 1.7 0 2.9-.8 3.7-2.4s1.2-4 1.2-7.3c0-2.6-.4-4.7-1.1-6.3-.7-1.6-1.9-2.3-3.5-2.3-1.9 0-3.3.8-4.2 2.3-.6 1.7-1.1 3.8-1.1 6.6zM406 33.4c-.8.7-1.7 1.2-2.9 1.6s-2.4.6-3.7.6c-1.5 0-2.8-.3-3.9-.9-1.1-.6-2-1.4-2.7-2.5-.7-1.1-1.2-2.4-1.6-4-.3-1.5-.5-3.3-.5-5.2 0-4.1.8-7.2 2.3-9.4 1.5-2.1 3.6-3.2 6.4-3.2.9 0 1.8.1 2.7.3.9.2 1.7.7 2.4 1.3.7.7 1.3 1.6 1.7 2.8s.6 2.8.6 4.8c0 .5 0 1.1-.1 1.8s-.1 1.3-.2 1.9h-12.2c0 1.4.1 2.6.3 3.7s.6 2.1 1.1 2.9 1.1 1.4 1.8 1.8c.8.4 1.7.6 2.8.6.9 0 1.7-.2 2.6-.5.8-.3 1.5-.7 1.9-1.2l1.2 2.8zm-2.7-12.9c.1-2.4-.3-4.2-1-5.3s-1.7-1.7-3-1.7c-1.5 0-2.6.6-3.5 1.7s-1.4 2.9-1.5 5.3h9zm19.6-6.4h-8V35h-3.5V11h11.4l.1 3.1zm8.7 12.4l1 4.7h.2l.7-4.7 3.7-15.5h3.5L435 32.6c-.4 1.7-.9 3.3-1.3 4.8s-.9 2.8-1.5 3.9c-.5 1.1-1.1 2-1.8 2.6s-1.4.9-2.3.9c-.9 0-1.7-.1-2.4-.4l.6-3.3c.4.2.9.2 1.3.1s.9-.4 1.3-.8.8-1.1 1.1-2c.3-.9.6-2 .9-3.4l-7.8-24h3.9l4.6 15.5zm23.9-2.2h-8.3V35h-3.5V11h3.5v10.2h8.3V11h3.5v24h-3.5V24.3zm8.8-11.9c.9-.6 2.1-1 3.4-1.3 1.3-.3 2.7-.5 4.2-.5 1.3 0 2.4.2 3.2.6.8.4 1.5.9 1.9 1.6.5.7.8 1.5.9 2.4.1.9.2 1.8.2 2.8 0 1.9 0 3.8-.1 5.6s-.1 3.6-.1 5.2c0 1.2 0 2.3.1 3.4.1 1 .2 2 .5 3h-2.7l-.8-2.8h-.2c-.5.8-1.2 1.6-2.1 2.2-.9.6-2.2.9-3.7.9-1.7 0-3.1-.6-4.2-1.8s-1.6-2.9-1.6-5c0-1.4.2-2.5.7-3.5s1.1-1.7 2-2.3c.8-.6 1.8-1 3-1.2s2.5-.4 3.9-.4h2c.1-1 .1-1.9.1-2.6 0-1.8-.3-3.1-.8-3.8s-1.5-1.1-2.9-1.1c-.9 0-1.9.1-2.9.4s-1.9.6-2.6 1l-1.4-2.8zm10.3 11.7c-.3 0-.6-.1-.9-.1h-.9c-.8 0-1.5.1-2.2.2-.7.1-1.4.4-1.9.7-.6.3-1 .8-1.4 1.3-.3.5-.5 1.2-.5 2.1 0 1.3.3 2.3.9 3 .6.7 1.4 1.1 2.4 1.1 1.3 0 2.4-.3 3.1-1 .7-.6 1.2-1.3 1.5-2.1l-.1-5.2zm8.1-1.1c0-4.3.7-7.5 2.2-9.5s3.6-3 6.4-3c2.9 0 5.1 1 6.5 3.1s2.1 5.2 2.1 9.5c0 4.4-.8 7.5-2.3 9.6-1.5 2-3.6 3-6.3 3-2.9 0-5.1-1-6.5-3.1-1.4-2.2-2.1-5.4-2.1-9.6zm3.6 0c0 1.4.1 2.7.3 3.8.2 1.2.5 2.1.9 3 .4.8.9 1.5 1.6 1.9.6.5 1.4.7 2.3.7 1.7 0 2.9-.7 3.7-2.2s1.2-3.9 1.2-7.2c0-1.4-.1-2.6-.3-3.8-.2-1.2-.5-2.2-.9-3-.4-.8-.9-1.5-1.6-1.9-.6-.5-1.4-.7-2.3-.7-1.6 0-2.9.8-3.7 2.3-.8 1.4-1.2 3.8-1.2 7.1zm35.6 18.1h-2.4l-.6-6.1h-14.1l-.6 6.1h-2.4v-9.2h2.3c.2-.4.5-1 .8-1.9s.7-2.3 1-3.9c.3-1.7.6-3.8.8-6.2.2-2.5.4-5.4.4-8.8h12V32h2.8v9.1zm-6.2-9.2V14.1h-5.4c-.1 1.4-.2 2.9-.3 4.5s-.3 3.3-.5 4.9c-.2 1.6-.5 3.2-.8 4.6-.3 1.5-.7 2.7-1.1 3.7h8.1v.1zm21.6-7.6H529V35h-3.5V11h3.5v10.2h8.3V11h3.5v24h-3.5V24.3zm8-1.3c0-4.3.7-7.5 2.2-9.5s3.6-3 6.4-3c2.9 0 5.1 1 6.5 3.1s2.1 5.2 2.1 9.5c0 4.4-.8 7.5-2.3 9.6-1.5 2-3.6 3-6.3 3-2.9 0-5.1-1-6.5-3.1-1.4-2.2-2.1-5.4-2.1-9.6zm3.6 0c0 1.4.1 2.7.3 3.8.2 1.2.5 2.1.9 3 .4.8.9 1.5 1.6 1.9.6.5 1.4.7 2.3.7 1.7 0 2.9-.7 3.7-2.2s1.2-3.9 1.2-7.2c0-1.4-.1-2.6-.3-3.8-.2-1.2-.5-2.2-.9-3-.4-.8-.9-1.5-1.6-1.9-.6-.5-1.4-.7-2.3-.7-1.6 0-2.9.8-3.7 2.3-.8 1.4-1.2 3.8-1.2 7.1zm34.1-2.3l.3-4.6h-.2l-1.4 4.1-4.5 9.2H576l-4.7-9.2-1.3-4.1h-.2l.4 4.5V35h-3.1V11h3.5l5.2 10.4 1.1 3.1h.1l1.2-3.2L583 11h3.6v24h-3.5l-.1-14.3zm26.6 20.4h-2.4l-.6-6.1h-14.2l-.6 6.1h-2.4v-9.2h2.3c.2-.4.5-1 .8-1.9s.7-2.3 1-3.9c.3-1.7.6-3.8.8-6.2.2-2.5.4-5.4.4-8.8h12V32h2.8v9.1h.1zm-6.3-9.2V14.1h-5.4c-.1 1.4-.2 2.9-.3 4.5s-.3 3.3-.5 4.9c-.2 1.6-.5 3.2-.8 4.6-.3 1.5-.7 2.7-1.1 3.7h8.1v.1zm13.4-11.7l1.8-.3c.6 0 1.1-.1 1.6-.1 1.3 0 2.4.2 3.3.6.9.4 1.6.9 2.1 1.5s.9 1.4 1.1 2.3c.2.9.3 1.8.3 2.8 0 2.9-.6 5-1.9 6.3s-3.4 2-6.5 2c-1.9 0-3.7-.1-5.4-.3V11h3.5v9.2h.1zm0 11.7c1 .2 1.8.3 2.6.3 1.5 0 2.6-.4 3.2-1.2.6-.8.9-2 .9-3.5 0-1.4-.3-2.6-.9-3.4-.6-.8-1.6-1.2-3.1-1.2-.4 0-.9 0-1.3.1-.5 0-.9.1-1.4.3v8.6zM629.9 11h3.5v24h-3.5V11zM644 22.7L637.6 11h4.1l3.6 6.9 1 2.7 1-2.7 3.6-6.9h3.8l-6.4 11.5 6.8 12.5h-3.9l-4-7.5-1.1-2.9-1.1 2.9-4 7.5h-3.8l6.8-12.3zm14.6-10.3c.9-.6 2.1-1 3.4-1.3 1.3-.3 2.7-.5 4.2-.5 1.3 0 2.4.2 3.2.6.8.4 1.5.9 1.9 1.6.5.7.8 1.5.9 2.4.1.9.2 1.8.2 2.8 0 1.9 0 3.8-.1 5.6s-.1 3.6-.1 5.2c0 1.2 0 2.3.1 3.4.1 1 .2 2 .5 3h-2.7l-.8-2.8h-.2c-.5.8-1.2 1.6-2.1 2.2-.9.6-2.2.9-3.7.9-1.7 0-3.1-.6-4.2-1.8s-1.6-2.9-1.6-5c0-1.4.2-2.5.7-3.5s1.1-1.7 2-2.3c.8-.6 1.8-1 3-1.2s2.5-.4 3.9-.4h2c.1-1 .1-1.9.1-2.6 0-1.8-.3-3.1-.8-3.8-.5-.7-1.5-1.1-2.9-1.1-.9 0-1.9.1-2.9.4s-1.9.6-2.6 1l-1.4-2.8zm10.3 11.7c-.3 0-.6-.1-.9-.1h-.9c-.8 0-1.5.1-2.2.2-.7.1-1.4.4-1.9.7-.6.3-1 .8-1.4 1.3-.3.5-.5 1.2-.5 2.1 0 1.3.3 2.3.9 3 .6.7 1.4 1.1 2.4 1.1 1.3 0 2.4-.3 3.1-1 .7-.6 1.2-1.3 1.5-2.1l-.1-5.2zm20.9.2h-8.3V35H678V11h3.5v10.2h8.3V11h3.5v24h-3.5V24.3zm21-3.1l.3-3.6h-.2l-1.7 4-8.1 13.4h-2.3V11h3.5v14.3l-.3 3.5h.2l1.6-3.9 8.2-13.8h2.3v24h-3.5V21.2zm21.1 0l.3-3.6h-.2l-1.7 4-8.1 13.4h-2.3V11h3.5v14.3l-.3 3.5h.2l1.6-3.9 8.2-13.8h2.3v24h-3.5V21.2z" fill="#e75125"/></svg>
