<svg xmlns="http://www.w3.org/2000/svg" width="60" height="61"><path fill-rule="evenodd" fill="#FFF" d="M30 60.498c-16.543 0-30-13.456-30-29.999C0 13.957 13.457.498 30 .498s30 13.459 30 30.001c0 16.543-13.457 29.999-30 29.999zm0-54c-13.233 0-24 10.767-24 24.001 0 13.233 10.767 23.999 24 23.999s24-10.766 24-23.999C54 17.265 43.233 6.498 30 6.498zm0 42c-5.706 0-10.951-2.616-14.391-7.183l4.793-3.609c2.296 3.047 5.794 4.792 9.598 4.792 3.81 0 7.309-1.749 9.601-4.802l4.798 3.606c-3.435 4.574-8.683 7.196-14.399 7.196zm9-19.499a5.257 5.257 0 0 1-5.25-5.251 5.257 5.257 0 0 1 5.25-5.25 5.257 5.257 0 0 1 5.25 5.25A5.257 5.257 0 0 1 39 28.999zm-18 0a5.257 5.257 0 0 1-5.25-5.251 5.257 5.257 0 0 1 5.25-5.25 5.257 5.257 0 0 1 5.25 5.25A5.257 5.257 0 0 1 21 28.999z"/></svg>